<?xml version="1.0" standalone="no"?>
<!DOCTYPE svg PUBLIC "-//W3C//DTD SVG 20010904//EN"
 "http://www.w3.org/TR/2001/REC-SVG-20010904/DTD/svg10.dtd">
<svg version="1.0" xmlns="http://www.w3.org/2000/svg"
 width="512.000000pt" height="512.000000pt" viewBox="0 0 512.000000 512.000000"
 preserveAspectRatio="xMidYMid meet">
<metadata>
Created by potrace 1.11, written by Peter Selinger 2001-2013
</metadata>
<g transform="translate(0.000000,512.000000) scale(0.100000,-0.100000)"
fill="#000000" stroke="none">
<path d="M2746 5111 c-2 -3 -3 -228 -3 -498 l0 -493 51 -2 c28 0 56 -2 61 -3
6 -1 41 -5 79 -9 181 -21 398 -102 568 -212 335 -219 568 -578 623 -961 12
-82 14 -102 16 -155 l2 -58 489 0 488 0 0 153 c0 157 -14 273 -51 417 -11 41
-22 84 -24 95 -6 28 -70 211 -90 260 -15 35 -41 88 -121 245 -30 61 -160 252
-227 335 -63 78 -215 237 -289 302 -273 240 -623 424 -977 513 -64 16 -132 32
-151 35 -19 3 -48 8 -65 11 -109 19 -372 37 -379 25z"/>
<path d="M2328 4785 c-2 -1 -48 -5 -104 -9 -55 -4 -109 -8 -120 -10 -39 -7
-110 -19 -124 -21 -131 -15 -407 -103 -590 -188 -120 -55 -317 -174 -415 -249
-115 -88 -308 -271 -400 -378 -169 -197 -335 -487 -425 -745 -42 -120 -93
-320 -104 -405 -3 -25 -8 -55 -10 -67 -25 -125 -25 -495 -1 -644 3 -14 7 -41
9 -60 57 -409 259 -845 546 -1178 55 -64 60 -74 48 -89 -23 -28 -241 -285
-265 -312 -43 -50 -217 -256 -257 -304 -23 -27 -48 -57 -56 -66 -8 -9 -24 -26
-34 -38 l-19 -22 1324 1 c1361 1 1380 2 1574 43 464 98 900 340 1226 681 132
139 195 218 298 375 75 115 185 338 234 475 37 102 90 297 101 370 4 22 11 65
16 95 10 56 22 205 24 295 l1 50 -497 3 -498 2 -1 -57 c0 -32 -2 -69 -5 -83
-2 -14 -9 -56 -15 -95 -6 -38 -22 -108 -36 -155 -15 -47 -28 -91 -29 -98 -1
-7 -25 -59 -52 -115 -145 -296 -363 -514 -659 -659 -56 -27 -108 -51 -115 -52
-7 -2 -20 -6 -28 -9 -27 -11 -154 -45 -190 -51 -19 -3 -46 -9 -60 -12 -14 -3
-95 -8 -180 -10 -124 -3 -177 1 -264 17 -421 77 -756 310 -976 679 -75 126
-148 323 -166 450 -2 14 -8 49 -13 79 -5 30 -9 104 -9 165 -1 289 84 559 251
806 65 96 250 280 347 346 122 83 311 175 413 199 116 28 215 45 291 51 50 3
93 8 94 9 5 4 4 976 0 981 -4 4 -76 12 -80 9z"/>
<path d="M2740 3571 c0 -121 3 -221 8 -222 4 0 30 -2 59 -5 63 -5 177 -43 236
-78 188 -109 301 -300 316 -534 1 -10 49 -12 224 -10 141 2 221 7 220 13 0 6
-4 44 -7 85 -23 292 -183 578 -426 762 -106 81 -280 160 -400 184 -14 2 -31 7
-39 10 -8 2 -54 7 -103 11 l-88 6 0 -222z"/>
</g>
</svg>
