<svg version="1.1" id="Logo" xmlns="http://www.w3.org/2000/svg" x="0" y="0" viewBox="0 0 1242.8 176.5" xml:space="preserve"><style>.st0{fill:#fff}</style><path class="st0" d="M209 10.6v57.2h-7.1V.4h9.4l22.8 40.8L256.4.4h9.4v67.5H258V10.4l-21.9 40.2h-5.3l-21.8-40zm67 44.5c0-7.6 5.2-13.2 18.2-13.2 6.1 0 11 1.2 11 1.2v-3.2c0-7.5-3.2-11.5-10.7-11.5-8.8 0-11.2 6.5-11.2 6.5h-4.7v-4.8s3.7-7.8 16-7.8c11.5 0 17.6 6.1 17.6 17.8v27.8h-5.7l-.8-7.8c-2.3 4.5-7 8.7-14.5 8.7-10.1 0-15.2-6.1-15.2-13.7zm29.2-4v-2.6s-4.5-1.2-11-1.2c-8.8 0-11.2 3.8-11.2 7.7 0 5.2 3.2 7.8 9.4 7.8 8.4.1 12.8-6.4 12.8-11.7zm18.4-28h6.3l.5 6.5c2.3-4.4 6.4-7.4 12.6-7.4 6.6 0 10.6 3.4 11.6 8.3v4.7H350c-.5-2.4-2.4-6.9-8.9-6.9-7.4 0-10.3 6.2-10.3 13.2v26.4h-7.1V23.1zm35 57.2v-4.7h4.8c.6 2.3 4.3 9.3 14.7 9.3s16-6.7 16-19.6v-5.7c-3.5 6.1-9.4 9.2-16.2 9.2-12.8 0-21.1-10.3-21.1-23.3 0-13.2 8.5-23.3 21.1-23.3 6.9 0 12.8 3.2 16.2 9l.8-8h6.3v42c0 16.6-8.5 26.1-23.1 26.1-14.6 0-19.2-9.7-19.5-11zM394 45.4c0-9.5-5.6-17.2-14.9-17.2-9.7 0-15.2 7.6-15.2 17.2 0 10.4 6.2 17.2 15.1 17.2 8.3 0 15-6.4 15-17.2zm18.1-42.3h8.5v8.4h-8.5V3.1zm.7 20h7.1v44.7h-7.1V23.1zm18.9 0h6.3l.5 7.6c2-4.2 6.7-8.5 14.4-8.5 12.2 0 16.8 8.2 16.8 19.2v26.5h-7.1V42.2c0-8.5-3.1-13.9-11.2-13.9-8.7 0-12.6 6.2-12.6 13.9v25.7h-7.1V23.1zm69.8-20h8.5v8.4h-8.5V3.1zm.7 20h7.1v44.7h-7.1V23.1zm18.9 0h6.3l.5 7.6c2-4.2 6.7-8.5 14.4-8.5 12.2 0 16.8 8.2 16.8 19.2v26.5H552V42.2c0-8.5-3.1-13.9-11.2-13.9-8.7 0-12.6 6.2-12.6 13.9v25.7h-7.1V23.1zM170.3 79.5h-32.9c0-25.6-20.9-46.5-46.5-46.5V0c21.2 0 41.2 8.3 56.2 23.3 14.9 15 23.2 35 23.2 56.2z"/><path class="st0" d="M126 79.5h-14.7c0-11.5-9.2-20.9-20.5-20.9V44c19.4 0 35.2 15.9 35.2 35.5z"/><path class="st0" d="M126.3 90.5c0 25.6-20.9 46.5-46.5 46.5s-46.5-20.9-46.5-46.5S54.2 44 79.8 44V11c-21.2 0-41.2 8.3-56.2 23.3S.3 69.3.3 90.5c0 20.3 7.5 39.3 21.2 54.1L0 170h79.8c21.2 0 41.2-8.3 56.2-23.3s23.3-35 23.3-56.2h-33zm68.9 33.9c0-25.5 15.9-42.4 39.9-42.4 21.7 0 29.7 11.6 31 16.9v8.3h-14.2c-.7-3.2-4.8-9.9-16.5-9.9-13.5 0-22.1 10.2-22.1 26.9 0 16.4 8.6 27.1 22.1 27.1 11.5 0 16.3-7.2 17.1-10.3h14.2v8.3c-1.7 6.5-11.3 17.5-31.5 17.5-25.1-.1-40-17.5-40-42.4zm75.9 13.1c0-16 10.8-28.9 29-28.9 18.1 0 29 12.9 29 28.9 0 16.1-10.9 29.2-29 29.2-18.3 0-29-13.1-29-29.2zm41.6 0c0-8-4-14.7-12.6-14.7s-12.6 6.6-12.6 14.7c0 8.3 4 15 12.6 15 8.5 0 12.6-6.7 12.6-15zm24.5-27.3h15.2l.8 7c2.4-4.1 7-8.6 14.4-8.6 8 0 13 4 15.3 9.5 2.7-4.6 7.7-9.5 16.3-9.5 13.7 0 18.9 10.1 18.9 22.4v34.1h-16.3v-32c0-5.9-2.1-9.8-7.8-9.8-6.2 0-8.5 5-8.5 9.6v32.3h-15.8v-32.5c0-5.6-2.3-9.3-7.8-9.3-6.3 0-8.5 5.3-8.5 10.4v31.4h-16.3v-55zm91.6 0H444l.8 7c2.4-4.1 7-8.6 14.4-8.6 8 0 13 4 15.3 9.5 2.7-4.6 7.7-9.5 16.3-9.5 13.7 0 18.9 10.1 18.9 22.4v34.1h-16.3v-32c0-5.9-2.1-9.8-7.8-9.8-6.2 0-8.5 5-8.5 9.6v32.3h-15.8v-32.5c0-5.6-2.3-9.3-7.8-9.3-6.3 0-8.5 5.3-8.5 10.4v31.4h-16.3v-55zm88.9 45.7v-7.4H530c.4 1.6 4.1 6.3 11.7 6.3 6.3 0 8.5-2.2 8.5-5.2 0-3.5-3.2-4.8-8.4-5.6l-7-.9c-9.9-1.3-16.4-6.2-16.4-16.4 0-10.5 8.5-18 22.4-18 12.6 0 19.2 4.8 21.6 10.4v7.4H550c-.2-1.2-2.8-5.9-9.6-5.9-5.2 0-7.4 2.2-7.4 5.2 0 2.9 2.5 4.6 7 5.3l7 1c10.5 1.5 17.8 5.5 17.8 16.1 0 10.9-8.6 18.6-23.4 18.6-14.9-.1-22.4-7.3-23.7-10.9zm54.6-31h31v13.4h-31v-13.4zm38.1 24.8c0-10.4 7.6-17.1 23.6-17.1 5.6 0 10.2 1.1 10.2 1.1v-2.4c0-6-2.8-9.1-9-9.1-7.1 0-9.3 5-9.3 5h-12.4v-7.3s4.7-11.3 22.1-11.3c16.7 0 25.1 7.9 25.1 23.3v33.2h-14.8l-1.1-7c-2.7 4.5-7.6 8.6-16.3 8.6-12.2 0-18.1-7.7-18.1-17zm33.7-4.5v-2.4s-3.8-.9-9.1-.9c-6.4 0-8.5 2.7-8.5 6.2 0 4.2 2.7 6 7.2 6 7.1 0 10.4-5 10.4-8.9zm24.3 10.7v-7.4h12.3c.4 1.6 4.1 6.3 11.7 6.3 6.3 0 8.5-2.2 8.5-5.2 0-3.5-3.2-4.8-8.4-5.6l-7-.9c-9.9-1.3-16.4-6.2-16.4-16.4 0-10.5 8.5-18 22.4-18 12.6 0 19.2 4.8 21.6 10.4v7.4h-12.4c-.2-1.2-2.8-5.9-9.6-5.9-5.2 0-7.4 2.2-7.4 5.2 0 2.9 2.5 4.6 7 5.3l7 1c10.5 1.5 17.8 5.5 17.8 16.1 0 10.9-8.6 18.6-23.4 18.6-14.9-.1-22.4-7.3-23.7-10.9zm54.6-31h31v13.4h-31v-13.4zm38 24.8c0-10.4 7.6-17.1 23.6-17.1 5.6 0 10.2 1.1 10.2 1.1v-2.4c0-6-2.8-9.1-9-9.1-7.1 0-9.3 5-9.3 5h-12.4v-7.3s4.7-11.3 22.1-11.3c16.7 0 25.1 7.9 25.1 23.3v33.2h-14.8l-1.1-7c-2.7 4.5-7.6 8.6-16.3 8.6-12.1 0-18.1-7.7-18.1-17zm33.8-4.5v-2.4s-3.8-.9-9.1-.9c-6.4 0-8.5 2.7-8.5 6.2 0 4.2 2.7 6 7.2 6 7.1 0 10.4-5 10.4-8.9zm26.4-20.3h31v13.4h-31v-13.4zm38.8 25.3v-8.1h14.2c2.2 6.1 7.4 9.9 16.1 9.9 7.6 0 12.7-3.5 12.7-9.6 0-5.3-3.7-8.4-12-10.2l-7.5-1.4c-14.9-2.9-23.1-10.9-23.1-24 0-15.6 11.7-24.8 29.7-24.8 15 0 25.3 6.2 27.6 16.2v8.3h-14.1c-1.4-5.5-5.4-9.7-13.9-9.7-7.6 0-11.7 3.6-11.7 9 0 4.5 3 7.4 10.9 9.1l7.8 1.7c14.9 3 23.9 11.2 23.9 24.8 0 15.5-12.4 25.3-30.5 25.3-16.9 0-26.6-7.5-30.1-16.5zm66.2-12.4c0-16.1 10.4-29.2 28.9-29.2 18.6 0 26.6 11.2 26.6 25.9 0 3.8-.8 7-.8 7h-38.2c1 7.4 5.3 12.2 13.4 12.2 9.8 0 11.7-5 11.7-5h12.8v7.3s-5.3 10.9-24.9 10.9c-19.7-.2-29.5-12.8-29.5-29.1zm39.7-6.3c0-5.2-3.6-9.9-11-9.9-7.2 0-10.6 4.1-12 9.9h23zm23.9-21.3h15.3l.8 7.2c2.4-4.6 7.3-8.8 14.7-8.8 8.5 0 12.9 4.8 13.8 11.6v7.8h-12.5c-.1 0-.8-5.3-7.2-5.3-5.9 0-8.5 5-8.5 11.7V165h-16.4v-54.8zm65.1 54.9l-20.4-47.3v-7.6h14.8l13.7 33.4 13.5-33.4h13.9v7.3l-20.6 47.6h-14.9zm41.1-80.4h16.9v15.2H1096V84.7zm.4 25.5h16.3v54.9h-16.3v-54.9zm24.5 27.6c0-16.1 10.6-29.3 28.7-29.3 18.6 0 22.5 12.8 22.5 12.8v7.3h-12.3s-1.6-5.9-10.2-5.9c-8.4 0-12.3 6.8-12.3 15.1 0 8.1 3.9 14.7 12.3 14.7 9 0 10.3-5.9 10.3-5.9h12.3v7.3s-4.2 12.8-22.6 12.8c-19.3 0-28.7-13-28.7-28.9zm56.5 0c0-16.1 10.4-29.2 28.9-29.2 18.6 0 26.6 11.2 26.6 25.9 0 3.8-.8 7-.8 7h-38.2c1 7.4 5.3 12.2 13.4 12.2 9.8 0 11.7-5 11.7-5h12.8v7.3s-5.3 10.9-24.9 10.9c-19.8-.2-29.5-12.8-29.5-29.1zm39.7-6.3c0-5.2-3.6-9.9-11-9.9-7.2 0-10.6 4.1-12 9.9h23z"/></svg>