<svg xmlns="http://www.w3.org/2000/svg" width="1289.83" height="178.45"><path d="M208.976 10.617v57.238h-7.11V.358h9.45l22.769 40.768L256.4.358h9.36v67.5h-7.74v-57.42l-21.865 40.228h-5.31zm67.05 44.459c0-7.56 5.22-13.229 18.179-13.229a52.124 52.124 0 0110.979 1.17v-3.151c0-7.47-3.239-11.519-10.709-11.519-8.82 0-11.16 6.479-11.16 6.479h-4.679v-4.769s3.689-7.829 16.019-7.829c11.519 0 17.639 6.119 17.639 17.818v27.809h-5.67l-.81-7.83a15.784 15.784 0 01-14.489 8.731c-10.26 0-15.299-6.03-15.299-13.68zm29.158-3.96v-2.61a48.042 48.042 0 00-10.979-1.17c-8.82 0-11.25 3.78-11.25 7.74 0 5.22 3.24 7.829 9.45 7.829 8.369 0 12.779-6.479 12.779-11.789zm18.45-27.989h6.3l.54 6.479c2.25-4.409 6.39-7.378 12.6-7.378 6.569 0 10.619 3.418 11.609 8.279v4.68H350c-.54-2.43-2.429-6.93-8.909-6.93-7.38 0-10.35 6.21-10.35 13.229v26.369h-7.11zm34.921 57.148V75.6h4.77c.629 2.341 4.319 9.27 14.669 9.27s16.02-6.66 16.02-19.62v-5.674a18 18 0 01-16.2 9.18c-12.779 0-21.059-10.26-21.059-23.31 0-13.229 8.46-23.309 21.059-23.309a18.248 18.248 0 0116.2 9l.81-8.01h6.3v42.028c0 16.65-8.549 26.1-23.129 26.1-14.49 0-19.08-9.63-19.44-10.98zm35.459-34.829c0-9.54-5.581-17.189-14.94-17.189-9.72 0-15.209 7.649-15.209 17.189 0 10.44 6.21 17.19 15.119 17.19 8.28 0 15.03-6.39 15.03-17.19zM412.1 3.058h8.46v8.37h-8.46zm.72 20.069h7.11v44.728h-7.11zm18.903 0h6.3l.54 7.56c1.98-4.23 6.66-8.459 14.4-8.459 12.24 0 16.83 8.189 16.83 19.168v26.459h-7.11V42.206c0-8.55-3.06-13.949-11.249-13.949-8.73 0-12.6 6.21-12.6 13.859v25.739h-7.11zm69.75-20.069h8.459v8.37h-8.459zm.719 20.069h7.11v44.728h-7.11zm18.899 0h6.3l.54 7.56c1.98-4.23 6.66-8.459 14.4-8.459 12.24 0 16.83 8.189 16.83 19.168v26.459h-7.11V42.206c0-8.55-3.06-13.949-11.249-13.949-8.73 0-12.6 6.21-12.6 13.859v25.739h-7.11z" fill="#a2a8b7"/><path d="M170.306 79.51h-32.937a46.6 46.6 0 00-46.522-46.521V0a79.416 79.416 0 0179.459 79.51z" fill="#d80d2a"/><path d="M125.981 79.51h-14.656A20.739 20.739 0 0090.8 58.624V43.968a35.4 35.4 0 0135.181 35.542z" fill="#e52a3f"/><path d="M126.338 90.49a46.522 46.522 0 11-46.521-46.522V11.03A79.495 79.495 0 0021.55 144.62L0 170h79.766a79.5 79.5 0 0079.51-79.51z" fill="#e52a3f"/><path d="M201.866 125.168c0-25.459 15.817-42.251 39.759-42.251 21.667 0 29.576 11.592 30.876 16.9v8.234h-14.192c-.65-3.142-4.767-9.859-16.467-9.859-13.433 0-21.992 10.183-21.992 26.868 0 16.358 8.559 26.975 21.992 26.975 11.484 0 16.251-7.15 17.009-10.292h14.192v8.233c-1.734 6.5-11.267 17.443-31.418 17.443-24.917 0-39.759-17.333-39.759-42.251zm78.334 13.108c0-15.924 10.725-28.817 28.925-28.817 18.093 0 28.926 12.893 28.926 28.817 0 16.034-10.833 29.143-28.926 29.143-18.204 0-28.925-13.109-28.925-29.143zm41.492 0c0-8.017-4.008-14.625-12.567-14.625s-12.566 6.608-12.566 14.625c0 8.234 4.008 14.95 12.566 14.95s12.563-6.716 12.563-14.95zm27.191-27.192h15.167l.759 6.933a16.263 16.263 0 0114.408-8.558c8.017 0 13 4.009 15.275 9.425 2.709-4.549 7.692-9.425 16.251-9.425 13.65 0 18.85 10.075 18.85 22.317v34.018h-16.25v-31.959c0-5.851-2.058-9.75-7.8-9.75-6.175 0-8.449 4.983-8.449 9.533v32.176h-15.71V133.4c0-5.633-2.275-9.316-7.8-9.316-6.284 0-8.451 5.308-8.451 10.4v31.31h-16.25zm94.04 0h15.167l.758 6.933a16.266 16.266 0 0114.409-8.558c8.017 0 13 4.009 15.275 9.425 2.709-4.549 7.692-9.425 16.251-9.425 13.65 0 18.85 10.075 18.85 22.317v34.018h-16.25v-31.959c0-5.851-2.059-9.75-7.8-9.75-6.175 0-8.45 4.983-8.45 9.533v32.176h-15.709V133.4c0-5.633-2.276-9.316-7.8-9.316-6.284 0-8.451 5.308-8.451 10.4v31.31h-16.25zm91.331 45.502v-7.368H546.5c.433 1.625 4.117 6.284 11.7 6.284 6.283 0 8.45-2.166 8.45-5.2 0-3.468-3.142-4.767-8.342-5.634l-6.934-.866c-9.858-1.3-16.358-6.176-16.358-16.359 0-10.509 8.45-17.984 22.317-17.984 12.567 0 19.175 4.766 21.559 10.4v7.368h-12.354c-.216-1.193-2.817-5.851-9.533-5.851-5.2 0-7.367 2.167-7.367 5.2 0 2.925 2.492 4.55 6.934 5.308l6.933.975c10.509 1.517 17.767 5.526 17.767 16.034 0 10.834-8.558 18.526-23.292 18.526-14.95 0-22.426-7.259-23.726-10.833zm57.204-30.876h30.876v13.325h-30.876zm40.628 24.7c0-10.4 7.584-17.009 23.509-17.009a48.946 48.946 0 0110.183 1.083V132.1c0-5.958-2.816-9.1-8.991-9.1-7.042 0-9.317 4.983-9.317 4.983h-12.35v-7.259s4.658-11.266 21.992-11.266c16.683 0 25.025 7.908 25.025 23.184v33.151H667.4l-1.084-6.934c-2.708 4.442-7.583 8.559-16.25 8.559-12.021.001-17.98-7.691-17.98-17.008zm33.692-4.442v-2.384a45.1 45.1 0 00-9.1-.866c-6.391 0-8.45 2.709-8.45 6.175 0 4.225 2.709 5.958 7.15 5.958 7.042 0 10.4-4.983 10.4-8.883zm26.87 10.618v-7.368h12.243c.433 1.625 4.117 6.284 11.7 6.284 6.284 0 8.45-2.166 8.45-5.2 0-3.468-3.142-4.767-8.342-5.634l-6.934-.866c-9.858-1.3-16.359-6.176-16.359-16.359 0-10.509 8.451-17.984 22.318-17.984 12.567 0 19.175 4.766 21.559 10.4v7.368h-12.351c-.216-1.193-2.816-5.851-9.533-5.851-5.2 0-7.367 2.167-7.367 5.2 0 2.925 2.491 4.55 6.934 5.308l6.933.975c10.508 1.517 17.767 5.526 17.767 16.034 0 10.834-8.558 18.526-23.292 18.526-14.951 0-22.426-7.259-23.726-10.833zm57.204-30.876h30.876v13.325h-30.876zm40.628 24.7c0-10.4 7.584-17.009 23.509-17.009a48.946 48.946 0 0110.183 1.083V132.1c0-5.958-2.816-9.1-8.991-9.1-7.042 0-9.317 4.983-9.317 4.983h-12.35v-7.259s4.658-11.266 21.992-11.266c16.684 0 25.025 7.908 25.025 23.184v33.151H825.8l-1.084-6.934c-2.708 4.442-7.583 8.559-16.25 8.559-12.028.001-17.986-7.691-17.986-17.008zm33.692-4.442v-2.384a45.1 45.1 0 00-9.1-.866c-6.392 0-8.449 2.709-8.449 6.175 0 4.225 2.708 5.958 7.15 5.958 7.041 0 10.399-4.983 10.399-8.883zm29.037-20.258h30.876v13.325h-30.876zm41.391 25.242v-8.125h14.192c2.166 6.066 7.367 9.858 16.033 9.858 7.585 0 12.676-3.467 12.676-9.533 0-5.308-3.684-8.342-11.917-10.185l-7.475-1.407c-14.842-2.926-23.075-10.835-23.075-23.943 0-15.6 11.7-24.7 29.575-24.7 14.95 0 25.242 6.175 27.518 16.142v8.233h-14.088c-1.408-5.525-5.417-9.642-13.867-9.642-7.584 0-11.7 3.576-11.7 8.992 0 4.442 3.034 7.367 10.835 9.1l7.8 1.733c14.842 3.034 23.834 11.159 23.834 24.7 0 15.492-12.35 25.242-30.442 25.242-16.799.002-26.436-7.473-29.899-16.465zm68.684-12.352c0-16.033 10.4-29.142 28.817-29.142 18.526 0 26.543 11.158 26.543 25.784a33 33 0 01-.758 6.934h-38.135c.975 7.367 5.309 12.133 13.325 12.133 9.75 0 11.7-4.983 11.7-4.983h12.783v7.259s-5.308 10.833-24.808 10.833c-19.716.001-29.467-12.567-29.467-28.818zm39.652-6.283c0-5.2-3.576-9.858-10.943-9.858-7.15 0-10.617 4.116-11.916 9.858zm26.544-21.233h15.276l.758 7.15a16.119 16.119 0 0114.625-8.775c8.45 0 12.893 4.766 13.759 11.592v7.8h-12.458c-.108 0-.758-5.308-7.15-5.308-5.85 0-8.45 4.983-8.45 11.7v30.551h-16.36zm67.604 54.71l-20.367-47.126v-7.584h14.733l13.65 33.259 13.434-33.259h13.866v7.259l-20.583 47.451zm43.66-80.169h16.9v15.167h-16.9zm.434 25.459h16.25v54.71h-16.25zm27.085 27.516c0-16.033 10.617-29.25 28.6-29.25 18.526 0 22.426 12.783 22.426 12.783v7.259h-12.242s-1.625-5.85-10.184-5.85c-8.342 0-12.242 6.825-12.242 15.058 0 8.125 3.9 14.625 12.242 14.625 8.992 0 10.292-5.85 10.292-5.85h12.245v7.259s-4.225 12.784-22.534 12.784c-19.177.001-28.603-12.999-28.603-28.818zm59.046 0c0-16.033 10.4-29.142 28.817-29.142 18.526 0 26.543 11.158 26.543 25.784a33 33 0 01-.758 6.934h-38.135c.975 7.367 5.309 12.133 13.325 12.133 9.75 0 11.7-4.983 11.7-4.983h12.784v7.259s-5.309 10.833-24.809 10.833c-19.716.001-29.467-12.567-29.467-28.818zm39.652-6.283c0-5.2-3.576-9.858-10.943-9.858-7.15 0-10.617 4.116-11.916 9.858z" fill="#2b2d42"/></svg>