<?xml version="1.0" encoding="utf-8"?>
<!-- Generator: Adobe Illustrator 24.0.0, SVG Export Plug-In . SVG Version: 6.00 Build 0)  -->
<svg version="1.1" id="Logo" xmlns="http://www.w3.org/2000/svg" xmlns:xlink="http://www.w3.org/1999/xlink" x="0px" y="0px"
	 viewBox="0 0 1242.8 176.5" style="enable-background:new 0 0 1242.8 176.5;" xml:space="preserve">
<style type="text/css">
	.st0{fill:#FFFFFF;}
</style>
<g>
	<g>
		<path class="st0" d="M209,10.6v57.2h-7.1V0.4h9.4l22.8,40.8l22.3-40.8h9.4v67.5H258V10.4l-21.9,40.2h-5.3L209,10.6z"/>
		<path class="st0" d="M276,55.1c0-7.6,5.2-13.2,18.2-13.2c6.1,0,11,1.2,11,1.2v-3.2c0-7.5-3.2-11.5-10.7-11.5
			c-8.8,0-11.2,6.5-11.2,6.5h-4.7v-4.8c0,0,3.7-7.8,16-7.8c11.5,0,17.6,6.1,17.6,17.8v27.8h-5.7l-0.8-7.8c-2.3,4.5-7,8.7-14.5,8.7
			C281.1,68.8,276,62.7,276,55.1z M305.2,51.1v-2.6c0,0-4.5-1.2-11-1.2c-8.8,0-11.2,3.8-11.2,7.7c0,5.2,3.2,7.8,9.4,7.8
			C300.8,62.9,305.2,56.4,305.2,51.1z"/>
		<path class="st0" d="M323.6,23.1h6.3l0.5,6.5c2.3-4.4,6.4-7.4,12.6-7.4c6.6,0,10.6,3.4,11.6,8.3v4.7H350c-0.5-2.4-2.4-6.9-8.9-6.9
			c-7.4,0-10.3,6.2-10.3,13.2v26.4h-7.1V23.1z"/>
		<path class="st0" d="M358.6,80.3v-4.7h4.8c0.6,2.3,4.3,9.3,14.7,9.3s16-6.7,16-19.6v-5.7c-3.5,6.1-9.4,9.2-16.2,9.2
			c-12.8,0-21.1-10.3-21.1-23.3c0-13.2,8.5-23.3,21.1-23.3c6.9,0,12.8,3.2,16.2,9l0.8-8h6.3v42c0,16.6-8.5,26.1-23.1,26.1
			C363.5,91.3,358.9,81.6,358.6,80.3z M394,45.4c0-9.5-5.6-17.2-14.9-17.2c-9.7,0-15.2,7.6-15.2,17.2c0,10.4,6.2,17.2,15.1,17.2
			C387.3,62.6,394,56.2,394,45.4z"/>
		<path class="st0" d="M412.1,3.1h8.5v8.4h-8.5V3.1z M412.8,23.1h7.1v44.7h-7.1V23.1z"/>
		<path class="st0" d="M431.7,23.1h6.3l0.5,7.6c2-4.2,6.7-8.5,14.4-8.5c12.2,0,16.8,8.2,16.8,19.2v26.5h-7.1V42.2
			c0-8.5-3.1-13.9-11.2-13.9c-8.7,0-12.6,6.2-12.6,13.9v25.7h-7.1V23.1z"/>
		<path class="st0" d="M501.5,3.1h8.5v8.4h-8.5V3.1z M502.2,23.1h7.1v44.7h-7.1V23.1z"/>
		<path class="st0" d="M521.1,23.1h6.3l0.5,7.6c2-4.2,6.7-8.5,14.4-8.5c12.2,0,16.8,8.2,16.8,19.2v26.5h-7.1V42.2
			c0-8.5-3.1-13.9-11.2-13.9c-8.7,0-12.6,6.2-12.6,13.9v25.7h-7.1V23.1z"/>
	</g>
</g>
<g>
	<g>
		<path class="st0" d="M170.3,79.5h-32.9c0-25.6-20.9-46.5-46.5-46.5V0c21.2,0,41.2,8.3,56.2,23.3C162,38.3,170.3,58.3,170.3,79.5z"
			/>
		<path class="st0" d="M126,79.5h-14.7c0-11.5-9.2-20.9-20.5-20.9V44C110.2,44,126,59.9,126,79.5z"/>
	</g>
	<path class="st0" d="M126.3,90.5c0,25.6-20.9,46.5-46.5,46.5s-46.5-20.9-46.5-46.5S54.2,44,79.8,44V11c-21.2,0-41.2,8.3-56.2,23.3
		S0.3,69.3,0.3,90.5c0,20.3,7.5,39.3,21.2,54.1L0,170h79.8l0,0l0,0c21.2,0,41.2-8.3,56.2-23.3c15-15,23.3-35,23.3-56.2H126.3
		L126.3,90.5z"/>
</g>
<g>
	<path class="st0" d="M195.2,124.4c0-25.5,15.9-42.4,39.9-42.4c21.7,0,29.7,11.6,31,16.9v8.3h-14.2c-0.7-3.2-4.8-9.9-16.5-9.9
		c-13.5,0-22.1,10.2-22.1,26.9c0,16.4,8.6,27.1,22.1,27.1c11.5,0,16.3-7.2,17.1-10.3h14.2v8.3c-1.7,6.5-11.3,17.5-31.5,17.5
		C210.1,166.7,195.2,149.3,195.2,124.4z"/>
	<path class="st0" d="M271.1,137.5c0-16,10.8-28.9,29-28.9c18.1,0,29,12.9,29,28.9c0,16.1-10.9,29.2-29,29.2
		C281.8,166.7,271.1,153.6,271.1,137.5z M312.7,137.5c0-8-4-14.7-12.6-14.7c-8.6,0-12.6,6.6-12.6,14.7c0,8.3,4,15,12.6,15
		C308.6,152.5,312.7,145.8,312.7,137.5z"/>
	<path class="st0" d="M337.2,110.2h15.2l0.8,7c2.4-4.1,7-8.6,14.4-8.6c8,0,13,4,15.3,9.5c2.7-4.6,7.7-9.5,16.3-9.5
		c13.7,0,18.9,10.1,18.9,22.4v34.1h-16.3v-32c0-5.9-2.1-9.8-7.8-9.8c-6.2,0-8.5,5-8.5,9.6v32.3h-15.8v-32.5c0-5.6-2.3-9.3-7.8-9.3
		c-6.3,0-8.5,5.3-8.5,10.4v31.4h-16.3V110.2z"/>
	<path class="st0" d="M428.8,110.2H444l0.8,7c2.4-4.1,7-8.6,14.4-8.6c8,0,13,4,15.3,9.5c2.7-4.6,7.7-9.5,16.3-9.5
		c13.7,0,18.9,10.1,18.9,22.4v34.1h-16.3v-32c0-5.9-2.1-9.8-7.8-9.8c-6.2,0-8.5,5-8.5,9.6v32.3h-15.8v-32.5c0-5.6-2.3-9.3-7.8-9.3
		c-6.3,0-8.5,5.3-8.5,10.4v31.4h-16.3V110.2z"/>
	<path class="st0" d="M517.7,155.9v-7.4H530c0.4,1.6,4.1,6.3,11.7,6.3c6.3,0,8.5-2.2,8.5-5.2c0-3.5-3.2-4.8-8.4-5.6l-7-0.9
		c-9.9-1.3-16.4-6.2-16.4-16.4c0-10.5,8.5-18,22.4-18c12.6,0,19.2,4.8,21.6,10.4v7.4h-12.4c-0.2-1.2-2.8-5.9-9.6-5.9
		c-5.2,0-7.4,2.2-7.4,5.2c0,2.9,2.5,4.6,7,5.3l7,1c10.5,1.5,17.8,5.5,17.8,16.1c0,10.9-8.6,18.6-23.4,18.6
		C526.5,166.7,519,159.5,517.7,155.9z"/>
	<path class="st0" d="M572.3,124.9h31v13.4h-31V124.9z"/>
	<path class="st0" d="M610.4,149.7c0-10.4,7.6-17.1,23.6-17.1c5.6,0,10.2,1.1,10.2,1.1v-2.4c0-6-2.8-9.1-9-9.1c-7.1,0-9.3,5-9.3,5
		h-12.4v-7.3c0,0,4.7-11.3,22.1-11.3c16.7,0,25.1,7.9,25.1,23.3v33.2h-14.8l-1.1-7c-2.7,4.5-7.6,8.6-16.3,8.6
		C616.3,166.7,610.4,159,610.4,149.7z M644.1,145.2v-2.4c0,0-3.8-0.9-9.1-0.9c-6.4,0-8.5,2.7-8.5,6.2c0,4.2,2.7,6,7.2,6
		C640.8,154.1,644.1,149.1,644.1,145.2z"/>
	<path class="st0" d="M668.4,155.9v-7.4h12.3c0.4,1.6,4.1,6.3,11.7,6.3c6.3,0,8.5-2.2,8.5-5.2c0-3.5-3.2-4.8-8.4-5.6l-7-0.9
		c-9.9-1.3-16.4-6.2-16.4-16.4c0-10.5,8.5-18,22.4-18c12.6,0,19.2,4.8,21.6,10.4v7.4h-12.4c-0.2-1.2-2.8-5.9-9.6-5.9
		c-5.2,0-7.4,2.2-7.4,5.2c0,2.9,2.5,4.6,7,5.3l7,1c10.5,1.5,17.8,5.5,17.8,16.1c0,10.9-8.6,18.6-23.4,18.6
		C677.2,166.7,669.7,159.5,668.4,155.9z"/>
	<path class="st0" d="M723,124.9h31v13.4h-31V124.9z"/>
	<path class="st0" d="M761,149.7c0-10.4,7.6-17.1,23.6-17.1c5.6,0,10.2,1.1,10.2,1.1v-2.4c0-6-2.8-9.1-9-9.1c-7.1,0-9.3,5-9.3,5
		h-12.4v-7.3c0,0,4.7-11.3,22.1-11.3c16.7,0,25.1,7.9,25.1,23.3v33.2h-14.8l-1.1-7c-2.7,4.5-7.6,8.6-16.3,8.6
		C767,166.7,761,159,761,149.7z M794.8,145.2v-2.4c0,0-3.8-0.9-9.1-0.9c-6.4,0-8.5,2.7-8.5,6.2c0,4.2,2.7,6,7.2,6
		C791.5,154.1,794.8,149.1,794.8,145.2z"/>
	<path class="st0" d="M821.2,124.9h31v13.4h-31V124.9z"/>
	<path class="st0" d="M860,150.2v-8.1h14.2c2.2,6.1,7.4,9.9,16.1,9.9c7.6,0,12.7-3.5,12.7-9.6c0-5.3-3.7-8.4-12-10.2l-7.5-1.4
		c-14.9-2.9-23.1-10.9-23.1-24c0-15.6,11.7-24.8,29.7-24.8c15,0,25.3,6.2,27.6,16.2v8.3h-14.1c-1.4-5.5-5.4-9.7-13.9-9.7
		c-7.6,0-11.7,3.6-11.7,9c0,4.5,3,7.4,10.9,9.1l7.8,1.7c14.9,3,23.9,11.2,23.9,24.8c0,15.5-12.4,25.3-30.5,25.3
		C873.2,166.7,863.5,159.2,860,150.2z"/>
	<path class="st0" d="M926.2,137.8c0-16.1,10.4-29.2,28.9-29.2c18.6,0,26.6,11.2,26.6,25.9c0,3.8-0.8,7-0.8,7h-38.2
		c1,7.4,5.3,12.2,13.4,12.2c9.8,0,11.7-5,11.7-5h12.8v7.3c0,0-5.3,10.9-24.9,10.9C936,166.7,926.2,154.1,926.2,137.8z M965.9,131.5
		c0-5.2-3.6-9.9-11-9.9c-7.2,0-10.6,4.1-12,9.9H965.9z"/>
	<path class="st0" d="M989.8,110.2h15.3l0.8,7.2c2.4-4.6,7.3-8.8,14.7-8.8c8.5,0,12.9,4.8,13.8,11.6v7.8h-12.5
		c-0.1,0-0.8-5.3-7.2-5.3c-5.9,0-8.5,5-8.5,11.7v30.6h-16.4V110.2z"/>
	<path class="st0" d="M1054.9,165.1l-20.4-47.3v-7.6h14.8l13.7,33.4l13.5-33.4h13.9v7.3l-20.6,47.6H1054.9z"/>
	<path class="st0" d="M1096,84.7h16.9v15.2H1096V84.7z M1096.4,110.2h16.3v54.9h-16.3V110.2z"/>
	<path class="st0" d="M1120.9,137.8c0-16.1,10.6-29.3,28.7-29.3c18.6,0,22.5,12.8,22.5,12.8v7.3h-12.3c0,0-1.6-5.9-10.2-5.9
		c-8.4,0-12.3,6.8-12.3,15.1c0,8.1,3.9,14.7,12.3,14.7c9,0,10.3-5.9,10.3-5.9h12.3v7.3c0,0-4.2,12.8-22.6,12.8
		C1130.3,166.7,1120.9,153.7,1120.9,137.8z"/>
	<path class="st0" d="M1177.4,137.8c0-16.1,10.4-29.2,28.9-29.2c18.6,0,26.6,11.2,26.6,25.9c0,3.8-0.8,7-0.8,7h-38.2
		c1,7.4,5.3,12.2,13.4,12.2c9.8,0,11.7-5,11.7-5h12.8v7.3c0,0-5.3,10.9-24.9,10.9C1187.1,166.7,1177.4,154.1,1177.4,137.8z
		 M1217.1,131.5c0-5.2-3.6-9.9-11-9.9c-7.2,0-10.6,4.1-12,9.9H1217.1z"/>
</g>
</svg>
